<svg width="118" height="118" viewBox="0 0 118 118" fill="none" xmlns="http://www.w3.org/2000/svg">
<circle cx="59" cy="59" r="59" fill="#EEEEEE"/>
<path d="M97 64C99.7614 64 102 61.7614 102 59C102 56.2386 99.7614 54 97 54V64ZM18.4645 55.4645C16.5118 57.4171 16.5118 60.5829 18.4645 62.5355L50.2843 94.3553C52.2369 96.308 55.4027 96.308 57.3553 94.3553C59.308 92.4027 59.308 89.2369 57.3553 87.2843L29.0711 59L57.3553 30.7157C59.308 28.7631 59.308 25.5973 57.3553 23.6447C55.4027 21.692 52.2369 21.692 50.2843 23.6447L18.4645 55.4645ZM97 54L22 54V64L97 64V54Z" fill="black"/>
</svg>