<svg width="30" height="35" viewBox="0 0 30 35" fill="none" xmlns="http://www.w3.org/2000/svg">
<path d="M15 17.5C16.0312 17.5 16.9141 17.1573 17.6484 16.4718C18.3828 15.7864 18.75 14.9625 18.75 14C18.75 13.0375 18.3828 12.2135 17.6484 11.5281C16.9141 10.8427 16.0312 10.5 15 10.5C13.9688 10.5 13.0859 10.8427 12.3516 11.5281C11.6172 12.2135 11.25 13.0375 11.25 14C11.25 14.9625 11.6172 15.7864 12.3516 16.4718C13.0859 17.1573 13.9688 17.5 15 17.5ZM15 30.3625C18.8125 27.0958 21.6406 24.1281 23.4844 21.4593C25.3281 18.7906 26.25 16.4208 26.25 14.35C26.25 11.1708 25.1641 8.56768 22.9922 6.54059C20.8203 4.51351 18.1562 3.49997 15 3.49997C11.8438 3.49997 9.17969 4.51351 7.00781 6.54059C4.83594 8.56768 3.75 11.1708 3.75 14.35C3.75 16.4208 4.67188 18.7906 6.51563 21.4593C8.35938 24.1281 11.1875 27.0958 15 30.3625ZM15 35C9.96875 31.0041 6.21094 27.2927 3.72656 23.8656C1.24219 20.4385 0 17.2666 0 14.35C0 9.97497 1.50781 6.48955 4.52344 3.89372C7.53906 1.29789 11.0312 -3.05176e-05 15 -3.05176e-05C18.9688 -3.05176e-05 22.4609 1.29789 25.4766 3.89372C28.4922 6.48955 30 9.97497 30 14.35C30 17.2666 28.7578 20.4385 26.2734 23.8656C23.7891 27.2927 20.0312 31.0041 15 35Z" fill="#F62A66"/>
</svg>