<svg width="118" height="118" viewBox="0 0 118 118" fill="none" xmlns="http://www.w3.org/2000/svg">
<circle cx="59" cy="59" r="59" fill="#EEEEEE"/>
<path d="M22 54C19.2386 54 17 56.2386 17 59C17 61.7614 19.2386 64 22 64V54ZM100.536 62.5355C102.488 60.5829 102.488 57.4171 100.536 55.4645L68.7157 23.6447C66.7631 21.692 63.5973 21.692 61.6447 23.6447C59.692 25.5973 59.692 28.7631 61.6447 30.7157L89.9289 59L61.6447 87.2843C59.692 89.2369 59.692 92.4027 61.6447 94.3553C63.5973 96.308 66.7631 96.308 68.7157 94.3553L100.536 62.5355ZM22 64H97V54H22V64Z" fill="black"/>
</svg>